<svg clip-rule="evenodd" fill-rule="evenodd" stroke-linejoin="round" stroke-miterlimit="2" viewBox="0 0 304 143" xmlns="http://www.w3.org/2000/svg"><g fill-rule="nonzero"><path d="m0 15.943c.403 1.224.98 2.337 1.735 3.344.752 1.004 1.647 1.842 2.677 2.51 1.031.669 2.177 1.125 3.438 1.369 1.262.246 2.612.214 4.055-.092 1.457-.311 2.739-.832 3.849-1.564 1.111-.734 2.017-1.617 2.713-2.65.699-1.036 1.173-2.191 1.43-3.465.255-1.276.234-2.605-.059-3.988-.05-.237-.181-.424-.388-.555-.204-.133-.418-.174-.64-.13l-4.214.898c-.219.047-.388.172-.509.379-.121.204-.172.421-.154.645.148 1.102-.068 2.076-.654 2.926-.587.85-1.484 1.403-2.689 1.658-1.288.276-2.331.154-3.127-.361-.8-.518-1.351-1.229-1.659-2.135-.296-.852-.58-1.773-.856-2.766-.275-.992-.524-2.004-.743-3.044-.222-1.04-.406-2.061-.557-3.065-.148-1.004-.263-1.97-.346-2.893-.083-.942.133-1.807.651-2.603.519-.797 1.422-1.333 2.71-1.605 1.205-.258 2.248-.119 3.127.412.88.53 1.478 1.335 1.792 2.416.077.215.21.39.402.53.196.136.403.183.622.136l4.214-.897c.219-.045.397-.175.53-.386.134-.212.178-.428.131-.654-.299-1.397-.823-2.626-1.573-3.686-.752-1.061-1.658-1.919-2.712-2.574-1.057-.654-2.245-1.089-3.566-1.306-1.318-.216-2.7-.171-4.143.134-1.442.307-2.689.829-3.74 1.563-1.054.737-1.916 1.617-2.588 2.642-.669 1.021-1.146 2.146-1.427 3.373-.279 1.225-.356 2.478-.225 3.757.083.921.201 1.88.355 2.878.157.998.343 2.017.566 3.057.219 1.036.464 2.055.734 3.05.267.995.548 1.91.838 2.742" transform="matrix(.961674 0 0 .961674 27.9891 11.4685)"/><path d="m0 23.869c.717 1.027 1.599 1.868 2.645 2.52 1.045.654 2.223 1.095 3.532 1.329 1.306.234 2.66.205 4.06-.094 1.44-.306 2.707-.833 3.8-1.576 1.092-.743 1.984-1.629 2.674-2.648.69-1.021 1.164-2.149 1.421-3.387.258-1.235.255-2.479-.012-3.732l-4.178-19.657c-.044-.216-.169-.394-.373-.526-.202-.137-.412-.181-.625-.137l-4.137.88c-.225.049-.403.174-.524.379-.125.204-.163.418-.116.633l4.185 19.693c.198.927.006 1.795-.572 2.6-.577.809-1.507 1.347-2.789 1.619-1.253.267-2.298.146-3.133-.361-.836-.506-1.351-1.223-1.549-2.149l-4.185-19.69c-.047-.219-.171-.397-.376-.53-.201-.137-.408-.181-.622-.137l-4.14.88c-.225.051-.399.175-.524.379-.124.204-.162.415-.115.634l4.178 19.657c.267 1.253.758 2.393 1.475 3.421" transform="matrix(.961674 0 0 .961674 68.1097 7.31447)"/><path d="m0 32.314c.207.133.421.178.64.13l15.955-3.391c.231-.051.412-.177.539-.382.128-.204.169-.415.125-.633l-.847-3.981c-.048-.219-.175-.39-.382-.517-.205-.125-.421-.166-.64-.12l-4.658.99c-.279.048-.447-.069-.507-.34l-3.648-17.167c-.056-.273.053-.439.329-.498l4.246-.903c.222-.044.4-.171.536-.379.137-.205.184-.417.137-.634l-.841-3.965c-.048-.219-.175-.394-.382-.527-.208-.133-.418-.175-.637-.13l-15.121 3.213c-.231.05-.411.177-.539.381-.127.205-.168.416-.124.631l.844 3.968c.047.217.175.392.382.525.21.133.424.174.646.127l4.225-.897c.291-.063.465.044.522.316l3.651 17.167c.044.287-.068.462-.344.522l-4.658.988c-.222.048-.4.172-.539.371-.136.201-.183.408-.136.627l.847 3.981c.044.215.172.393.379.527" transform="matrix(.961674 0 0 .961674 108.579 2.33175)"/><path d="m0 32.628c.204.133.412.178.628.133l4.125-.876c.228-.051.406-.175.53-.379.124-.205.166-.415.118-.635l-3.076-14.472c-.03-.135.006-.23.1-.278.098-.051.187-.012.273.112l8.81 13.469c.088.151.231.29.426.411.193.122.474.146.835.066l4.883-1.036c.217-.045.391-.172.522-.38.133-.204.174-.417.13-.633l-5.866-27.601c-.048-.215-.172-.393-.376-.526-.205-.137-.415-.181-.628-.134l-4.128.877c-.214.044-.385.172-.519.376-.13.207-.174.418-.127.637l3.34 15.719c.033.148.003.249-.086.296-.091.047-.177.008-.26-.116l-9.133-14.679c-.095-.181-.24-.331-.432-.454-.196-.121-.447-.15-.758-.085l-4.922 1.048c-.216.045-.391.172-.521.376-.133.207-.175.418-.13.637l5.866 27.6c.047.215.172.393.376.527" transform="matrix(.961674 0 0 .961674 146.904 2.14345)"/><path d="m0 32.237c.207.133.418.178.637.13l15.351-3.26c.216-.048.391-.175.527-.38.134-.207.178-.42.131-.636l-.889-4.184c-.047-.22-.175-.395-.382-.527-.207-.134-.42-.178-.639-.131l-9.974 2.118c-.288.061-.459-.042-.518-.315l-1.066-5.022c-.045-.275.071-.441.343-.5l9.464-2.011c.231-.051.412-.178.542-.382.128-.205.169-.418.122-.633l-.889-4.188c-.05-.231-.177-.409-.382-.536-.207-.127-.42-.166-.639-.121l-9.462 2.014c-.293.046-.465-.066-.524-.338l-1.063-5.002c-.047-.29.068-.462.34-.521l9.811-2.085c.219-.048.397-.172.53-.379.137-.208.181-.418.134-.636l-.889-4.185c-.047-.219-.171-.394-.379-.527-.207-.136-.417-.178-.636-.133l-15.186 3.227c-.219.048-.394.175-.527.379-.136.207-.181.421-.133.637l5.866 27.6c.047.215.172.393.379.527" transform="matrix(.961674 0 0 .961674 186.61 2.33916)"/><path d="m0 22.889c.728 1.013 1.614 1.839 2.656 2.479 1.043.639 2.215 1.071 3.518 1.291 1.306.221 2.669.18 4.096-.122 1.445-.308 2.733-.817 3.862-1.525 1.125-.711 2.043-1.563 2.754-2.561.71-.999 1.193-2.109 1.448-3.33.254-1.222.236-2.513-.054-3.876-.308-1.445-.823-2.647-1.549-3.603-.725-.957-1.599-1.718-2.617-2.277-1.019-.56-2.18-.943-3.48-1.144-1.3-.198-2.712-.302-4.237-.305-1.147.015-2.124-.148-2.929-.491-.809-.341-1.297-.916-1.466-1.718-.181-.847-.015-1.617.5-2.31.513-.693 1.363-1.167 2.547-1.418 1.211-.258 2.206-.137 2.988.367.785.5 1.265 1.17 1.442 2.008l.136.637c.048.218.172.396.374.533.204.136.411.183.624.136l4.137-.88c.228-.047.403-.171.527-.376.125-.204.163-.414.116-.633l-.133-.635c-.261-1.223-.744-2.324-1.442-3.299-.702-.973-1.555-1.77-2.562-2.389-1.004-.619-2.147-1.028-3.423-1.235-1.28-.204-2.606-.16-3.983.133-1.368.29-2.577.785-3.622 1.481-1.045.699-1.91 1.534-2.594 2.508-.687.975-1.149 2.046-1.392 3.216-.243 1.173-.234 2.366.024 3.586.284 1.339.773 2.452 1.466 3.347.69.894 1.522 1.601 2.49 2.123.968.521 2.061.894 3.278 1.119 1.22.225 2.52.335 3.897.326 1.688.026 2.911.213 3.675.557.764.343 1.241.966 1.431 1.866.21.982.003 1.88-.622 2.697-.625.818-1.567 1.36-2.831 1.629-1.3.276-2.369.163-3.204-.344-.835-.506-1.36-1.247-1.567-2.226l-.266-1.247c-.048-.232-.175-.408-.376-.539-.202-.127-.409-.169-.622-.121l-4.137.864c-.225.051-.403.175-.527.379-.125.205-.163.418-.116.634l.264 1.247c.272 1.282.773 2.428 1.501 3.441" transform="matrix(.961674 0 0 .961674 223.467 7.32438)"/><path d="m0-16.727c-.062-.287.044-.459.317-.515l3.358-.714c.983-.209 1.845-.044 2.588.495.74.539 1.265 1.258 1.57 2.162.592 1.709 1.084 3.482 1.474 5.318.391 1.839.664 3.657.818 5.461.089.947-.098 1.821-.557 2.615-.459.793-1.179 1.294-2.162 1.504l-3.358.714c-.272.056-.435-.051-.494-.323zm-.693 23.904c.204.133.415.178.631.133l8.694-1.848c1.268-.269 2.381-.763 3.341-1.477.962-.717 1.753-1.587 2.372-2.607.622-1.021 1.072-2.143 1.347-3.37.273-1.225.346-2.478.213-3.757-.157-1.8-.429-3.622-.82-5.457-.391-1.839-.882-3.611-1.469-5.322-.403-1.223-.977-2.337-1.726-3.346-.749-1.007-1.617-1.848-2.6-2.53-.98-.68-2.059-1.151-3.225-1.415-1.17-.263-2.387-.261-3.655.009l-8.694 1.848c-.216.044-.391.172-.521.376-.133.207-.178.418-.13.636l5.866 27.6c.047.216.172.394.376.527" transform="matrix(.961674 0 0 .961674 8.68716 80.3241)"/><path d="m0 32.236c.207.134.417.178.637.131l15.351-3.261c.216-.048.391-.175.527-.379.134-.207.178-.421.13-.637l-.888-4.184c-.047-.219-.175-.394-.382-.527s-.42-.178-.64-.13l-9.973 2.117c-.288.062-.459-.041-.519-.314l-1.066-5.022c-.044-.275.072-.441.344-.501l9.464-2.011c.231-.05.412-.178.542-.382.128-.204.169-.418.122-.633l-.889-4.188c-.05-.23-.177-.408-.382-.536-.207-.127-.42-.165-.639-.121l-9.462 2.014c-.293.047-.465-.066-.524-.338l-1.063-5.001c-.047-.29.068-.462.34-.522l9.811-2.085c.219-.047.397-.172.53-.379.137-.207.181-.421.134-.636l-.889-4.185c-.047-.219-.172-.394-.379-.526-.207-.137-.417-.178-.636-.134l-15.186 3.227c-.219.048-.394.175-.527.379-.136.208-.181.421-.134.637l5.867 27.6c.047.216.172.394.379.527" transform="matrix(.961674 0 0 .961674 44.3466 56.2943)"/><path d="m0 22.888c.728 1.013 1.614 1.839 2.656 2.479 1.043.639 2.215 1.072 3.518 1.291 1.306.222 2.668.18 4.096-.122 1.445-.307 2.733-.817 3.861-1.525 1.126-.711 2.044-1.563 2.754-2.561.711-.999 1.194-2.109 1.448-3.329.255-1.223.237-2.514-.053-3.877-.308-1.444-.823-2.647-1.549-3.603-.725-.957-1.599-1.718-2.617-2.277-1.019-.56-2.18-.942-3.48-1.143-1.3-.199-2.712-.303-4.238-.306-1.146.015-2.123-.147-2.928-.491-.809-.341-1.297-.915-1.466-1.718-.181-.846-.015-1.617.5-2.309.513-.694 1.362-1.167 2.547-1.419 1.211-.258 2.206-.136 2.988.367.785.501 1.265 1.17 1.442 2.008l.136.637c.048.219.172.397.373.533.205.136.412.183.625.136l4.137-.879c.228-.048.403-.172.527-.376.125-.204.163-.415.116-.634l-.133-.634c-.261-1.224-.744-2.325-1.442-3.299-.702-.974-1.555-1.771-2.562-2.389-1.004-.62-2.147-1.029-3.423-1.236-1.28-.204-2.606-.16-3.983.134-1.369.29-2.577.784-3.622 1.48-1.045.699-1.91 1.535-2.594 2.508-.687.975-1.149 2.047-1.392 3.216-.243 1.173-.234 2.366.024 3.587.284 1.338.773 2.451 1.466 3.346.69.894 1.522 1.602 2.49 2.123s2.061.894 3.278 1.12c1.22.224 2.52.334 3.897.325 1.688.027 2.911.214 3.675.557s1.241.966 1.431 1.866c.21.983.003 1.88-.622 2.697-.625.818-1.567 1.36-2.831 1.629-1.3.276-2.369.163-3.204-.344-.836-.506-1.36-1.246-1.567-2.226l-.266-1.247c-.048-.231-.175-.408-.376-.539-.202-.127-.409-.168-.622-.121l-4.137.865c-.225.05-.403.174-.527.379-.125.204-.163.417-.116.634l.264 1.246c.272 1.282.773 2.428 1.501 3.441" transform="matrix(.961674 0 0 .961674 116.685 62.2553)"/><path d="m0-15.974c.003-.112.059-.184.169-.204l.08-.018c.109-.024.189.015.24.118l4.151 9.595c.027.066.048.124.06.178.041.192-.063.313-.308.364l-3.835.818c-.234.046-.37-.024-.409-.213-.012-.054-.018-.117-.018-.188zm-6.308 23.53c.027.122.101.243.225.36.178.159.436.204.776.132l4.389-.932c.45-.095.669-.364.66-.803l.27-4.558c-.018-.423.142-.671.483-.743l6.369-1.353c.19-.041.338-.009.448.095.106.106.204.234.293.387l2.224 4.028c.225.394.536.547.93.464l4.388-.932c.341-.074.557-.219.655-.438.08-.16.097-.3.059-.418-.012-.056-.03-.106-.053-.16l-13.362-26.219c-.172-.403-.483-.56-.93-.462l-5.594 1.187c-.45.095-.669.364-.663.803l-1.581 29.394c-.003.059.003.116.014.168" transform="matrix(.961674 0 0 .961674 160.343 79.6055)"/><path d="m0 32.627c.204.134.412.178.628.134l4.128-.877c.225-.05.403-.175.527-.379s.166-.414.118-.634l-3.076-14.472c-.03-.135.005-.231.1-.278.098-.051.187-.012.273.112l8.81 13.468c.088.152.231.291.426.412.193.121.474.146.835.066l4.883-1.037c.217-.044.391-.171.522-.379.133-.204.174-.417.13-.634l-5.866-27.6c-.048-.215-.172-.393-.377-.527-.204-.136-.414-.18-.627-.133l-4.129.877c-.213.044-.384.172-.518.376-.13.207-.174.417-.127.637l3.34 15.719c.033.147.003.249-.086.295-.091.047-.177.009-.26-.115l-9.133-14.679c-.095-.181-.24-.331-.432-.454-.196-.121-.447-.15-.758-.085l-4.922 1.048c-.216.044-.391.172-.521.376-.133.207-.175.417-.13.637l5.866 27.6c.047.215.172.393.376.526" transform="matrix(.961674 0 0 .961674 195.222 56.0385)"/><path d="m0-12.483c.207.128.421.166.64.119l5.7-1.211c.293-.048.468.065.527.337l4.709 22.149c.044.218.169.393.373.529.204.134.415.178.628.134l4.128-.88c.213-.044.388-.169.518-.376.133-.204.175-.418.127-.637l-4.705-22.147c-.062-.285.044-.456.32-.516l5.7-1.211c.237-.051.418-.178.545-.385.13-.205.172-.415.124-.634l-.888-4.184c-.047-.216-.172-.394-.379-.527s-.42-.178-.64-.13l-18.037 3.835c-.234.047-.415.174-.542.379-.127.207-.169.417-.121.633l.888 4.188c.05.23.178.408.385.535" transform="matrix(.961674 0 0 .961674 228.878 78.1557)"/><path d="m0-15.974c.003-.112.059-.184.169-.204l.08-.018c.109-.024.189.015.24.118l4.151 9.595c.027.066.048.124.06.178.041.192-.062.313-.308.364l-3.835.818c-.234.046-.37-.024-.409-.213-.012-.054-.018-.117-.018-.188zm-6.308 23.53c.027.122.101.243.225.36.178.159.436.204.776.132l4.389-.932c.45-.095.669-.364.66-.803l.27-4.558c-.018-.423.142-.671.483-.743l6.369-1.353c.19-.041.338-.009.448.095.106.106.204.234.293.387l2.224 4.028c.225.394.536.547.929.464l4.389-.932c.341-.074.557-.219.655-.438.08-.16.097-.3.059-.418-.012-.056-.03-.106-.053-.16l-13.362-26.219c-.172-.403-.483-.56-.93-.462l-5.594 1.187c-.45.095-.669.364-.663.803l-1.581 29.394c-.003.059.003.116.014.168" transform="matrix(.961674 0 0 .961674 271.519 79.6055)"/><path d="m0 15.943c.403 1.223.98 2.336 1.735 3.343.752 1.004 1.647 1.843 2.677 2.511 1.031.669 2.177 1.125 3.438 1.369 1.262.246 2.612.213 4.055-.092 1.456-.312 2.739-.832 3.849-1.564 1.111-.734 2.017-1.617 2.713-2.65.699-1.037 1.172-2.191 1.43-3.465.255-1.276.234-2.606-.059-3.989-.051-.236-.181-.423-.388-.554-.204-.133-.418-.175-.64-.13l-4.214.898c-.219.047-.388.171-.509.379-.121.204-.172.42-.154.645.148 1.102-.068 2.075-.654 2.926-.587.85-1.484 1.403-2.689 1.658-1.289.276-2.331.154-3.128-.361-.799-.519-1.35-1.229-1.658-2.135-.296-.853-.58-1.774-.856-2.767-.275-.991-.524-2.004-.743-3.043-.222-1.04-.406-2.061-.557-3.066-.148-1.003-.263-1.969-.346-2.892-.083-.942.133-1.807.651-2.604.518-.796 1.422-1.332 2.71-1.604 1.205-.258 2.248-.119 3.127.411.88.53 1.478 1.336 1.792 2.417.077.215.21.39.402.53.196.136.403.183.622.136l4.214-.898c.219-.044.397-.175.53-.385.134-.212.178-.429.131-.654-.3-1.397-.824-2.627-1.573-3.687-.752-1.06-1.658-1.918-2.712-2.574-1.058-.654-2.245-1.088-3.566-1.305-1.318-.216-2.701-.172-4.143.134-1.442.307-2.689.829-3.74 1.563-1.054.737-1.916 1.616-2.588 2.642-.669 1.021-1.146 2.146-1.427 3.372-.279 1.226-.356 2.479-.226 3.758.083.921.202 1.88.356 2.878.157.998.343 2.017.565 3.057.22 1.036.465 2.055.735 3.05.266.995.548 1.91.838 2.742" transform="matrix(.961674 0 0 .961674 17.5263 119.229)"/><path d="m0-15.974c.003-.112.059-.184.169-.204l.08-.018c.109-.023.189.015.24.118l4.151 9.595c.027.066.048.124.06.178.041.192-.063.314-.308.364l-3.835.818c-.234.047-.37-.024-.409-.213-.012-.054-.018-.116-.018-.187zm-6.308 23.531c.027.121.101.242.225.359.178.159.436.204.776.132l4.389-.932c.45-.095.669-.364.66-.803l.27-4.558c-.018-.422.142-.671.483-.743l6.369-1.353c.19-.041.338-.009.448.095.106.107.204.234.293.388l2.224 4.028c.225.393.536.547.929.464l4.389-.932c.341-.074.557-.22.655-.439.08-.16.097-.299.059-.418-.012-.055-.03-.106-.053-.159l-13.362-26.22c-.172-.403-.483-.56-.93-.461l-5.594 1.187c-.45.095-.669.364-.663.802l-1.581 29.394c-.003.06.003.116.014.169" transform="matrix(.961674 0 0 .961674 59.1797 133.41)"/><path d="m0 32.237c.207.134.417.178.637.13l15.351-3.26c.216-.048.391-.175.527-.379.134-.207.178-.421.131-.637l-.889-4.184c-.047-.219-.175-.394-.382-.527s-.42-.178-.639-.13l-9.974 2.117c-.287.062-.459-.042-.518-.315l-1.067-5.021c-.044-.276.072-.441.344-.501l9.464-2.011c.231-.051.412-.178.542-.382.128-.204.169-.418.122-.633l-.889-4.188c-.05-.23-.177-.408-.382-.536-.207-.127-.42-.165-.639-.121l-9.462 2.014c-.293.047-.465-.066-.524-.338l-1.063-5.001c-.047-.291.068-.462.341-.522l9.81-2.085c.22-.048.397-.172.531-.379.136-.207.18-.418.133-.636l-.889-4.185c-.047-.219-.171-.394-.379-.527-.207-.136-.417-.178-.636-.133l-15.186 3.227c-.219.048-.394.175-.527.38-.136.207-.181.42-.133.636l5.866 27.6c.047.216.172.394.379.527" transform="matrix(.961674 0 0 .961674 129.681 109.979)"/><path d="m0-16.643c-.059-.287.047-.459.32-.515l3.767-.802c.817-.175 1.575-.037 2.268.414.696.45 1.128 1.075 1.3 1.878.172.817.029 1.572-.429 2.267-.456.696-1.09 1.129-1.896 1.301l-3.766.799c-.276.045-.442-.068-.501-.34zm-.693 23.904c.204.133.412.177.628.133l4.128-.877c.213-.047.385-.172.518-.379.13-.204.175-.414.127-.634l-2.221-10.45c-.059-.272.051-.438.323-.497l1.084-.231c.234-.048.418-.024.551.077.136.098.243.195.32.293l6.473 9.42c.16.222.347.393.554.512s.483.142.817.072l4.268-.906c.42-.089.66-.277.728-.561s0-.568-.204-.853l-6.646-9.511c-.201-.284-.325-.525-.373-.72-.05-.195.06-.436.323-.72 1.279-1.326 2.141-2.638 2.582-3.941.442-1.303.489-2.763.145-4.383-.254-1.199-.722-2.283-1.403-3.254-.678-.974-1.499-1.774-2.461-2.402-.96-.627-2.023-1.06-3.189-1.294-1.167-.236-2.343-.228-3.533.023l-9.127 1.944c-.231.047-.409.174-.533.379-.127.204-.166.414-.122.633l5.867 27.6c.047.216.172.394.376.527" transform="matrix(.961674 0 0 .961674 168.743 133.928)"/><path d="m0 32.313c.207.134.421.178.64.131l15.955-3.391c.231-.051.412-.178.539-.382.128-.205.169-.415.125-.633l-.847-3.981c-.048-.219-.175-.39-.382-.518-.205-.124-.421-.165-.64-.119l-4.658.99c-.279.048-.447-.069-.507-.341l-3.648-17.167c-.056-.273.053-.438.329-.497l4.246-.904c.222-.043.4-.171.536-.378.137-.205.184-.418.137-.634l-.841-3.965c-.048-.22-.175-.395-.382-.527-.208-.134-.418-.175-.637-.13l-15.121 3.213c-.231.049-.411.177-.539.381-.127.205-.168.415-.124.631l.844 3.968c.047.217.175.391.382.524.21.133.423.175.646.127l4.225-.897c.291-.062.465.045.522.317l3.651 17.167c.044.287-.068.462-.344.521l-4.658.989c-.222.048-.4.172-.539.37-.136.201-.183.409-.136.628l.847 3.981c.044.215.172.393.379.526" transform="matrix(.961674 0 0 .961674 207.186 110.092)"/><path d="m0 32.628c.204.133.412.178.628.133l4.128-.876c.225-.051.403-.175.527-.379s.166-.418.118-.634l-3.076-14.472c-.03-.136.005-.231.1-.278.098-.051.19-.013.273.112l8.81 13.468c.089.152.231.287.426.411.193.122.474.146.835.066l4.883-1.036c.217-.045.391-.172.522-.379.133-.205.174-.418.13-.634l-5.866-27.6c-.048-.216-.172-.393-.377-.527-.204-.136-.414-.181-.627-.133l-4.129.876c-.213.045-.384.172-.518.376-.13.208-.174.418-.127.637l3.34 15.719c.033.148.003.249-.085.296-.092.047-.178.009-.261-.116l-9.133-14.678c-.095-.181-.24-.332-.432-.454-.196-.122-.447-.151-.758-.085l-4.922 1.047c-.216.045-.391.172-.521.376-.134.208-.175.418-.13.637l5.866 27.6c.047.216.172.394.376.527" transform="matrix(.961674 0 0 .961674 245.561 109.604)"/><path d="m0-15.974c.003-.112.059-.184.169-.204l.08-.018c.109-.023.189.015.24.118l4.151 9.595c.027.066.048.124.06.178.041.192-.063.314-.308.364l-3.835.818c-.234.047-.371-.024-.409-.213-.012-.054-.018-.116-.018-.187zm-6.308 23.531c.027.121.101.242.225.359.178.159.436.204.776.132l4.389-.932c.45-.095.669-.364.66-.803l.27-4.558c-.018-.422.142-.671.483-.743l6.369-1.353c.19-.041.338-.009.447.095.107.107.205.234.294.388l2.224 4.028c.225.393.536.547.929.464l4.389-.932c.341-.074.557-.22.654-.439.08-.16.098-.299.06-.418-.012-.055-.03-.106-.054-.159l-13.361-26.22c-.172-.403-.483-.56-.93-.461l-5.594 1.187c-.45.095-.669.364-.663.802l-1.581 29.394c-.003.06.002.116.014.169" transform="matrix(.961674 0 0 .961674 286.729 133.41)"/><path d="m0-3.953-.888-4.185c-.051-.23-.196-.412-.436-.547-.243-.137-.494-.175-.755-.122l-6.153 1.309-1.902-8.952c-.047-.219-.174-.397-.379-.533-.207-.133-.417-.178-.636-.13l-4.188.889c-.219.046-.394.17-.53.381-.133.204-.178.417-.13.637l1.158 5.445.746 3.51-5.994 1.274c-.278.058-.494.198-.651.417-.16.222-.213.447-.163.674l.888 4.185c.048.231.196.412.439.548.242.137.497.175.761.119l5.034-1.069.951-.202 2.721 12.802c.044.222.172.397.379.533.204.133.418.178.637.13l4.187-.888c.216-.047.394-.172.527-.382.133-.204.178-.417.13-.637l-1.96-9.225-.761-3.58 1.084-.23 5.058-1.075c.263-.057.48-.196.648-.418.166-.222.225-.45.178-.678" transform="matrix(.961674 0 0 .961674 107.497 128.537)"/></g></svg>