<?xml version="1.0" encoding="UTF-8" standalone="no"?>
<!DOCTYPE svg PUBLIC "-//W3C//DTD SVG 1.1//EN" "http://www.w3.org/Graphics/SVG/1.1/DTD/svg11.dtd">
<svg width="100%" height="100%" viewBox="0 0 1576 205" version="1.1" xmlns="http://www.w3.org/2000/svg" xmlns:xlink="http://www.w3.org/1999/xlink" xml:space="preserve" xmlns:serif="http://www.serif.com/" style="fill-rule:evenodd;clip-rule:evenodd;stroke-linejoin:round;stroke-miterlimit:2;">
    <g transform="matrix(4.16667,0,0,4.16667,45.1188,3.09667)">
        <path d="M0,47.557L16.95,47.557L16.95,44.404L10.436,44.404L10.436,3.153L24.163,3.153L24.163,14.989L27.385,14.989L27.385,0L-10.435,0L-10.435,14.989L-7.213,14.989L-7.213,3.153L6.514,3.153L6.514,44.404L0,44.404L0,47.557Z" style="fill:rgb(35,31,32);fill-rule:nonzero;"/>
    </g>
    <g transform="matrix(4.16667,0,0,4.16667,164.771,3.09667)">
        <path d="M0,47.557L17.579,47.557L17.579,44.404L10.926,44.404L10.926,23.812L21.431,23.812L32.144,47.557L40.97,47.557L40.97,44.404L34.876,44.404L25.352,23.464C32.356,22.205 36.277,18 36.277,11.697C36.277,5.325 31.936,0 23.322,0L0,0L0,3.153L7.001,3.153L7.001,44.404L0,44.404L0,47.557ZM10.926,20.662L10.926,3.153L22.272,3.153C28.574,3.153 32.356,6.514 32.356,11.767C32.356,17.019 29.134,20.662 20.798,20.662L10.926,20.662Z" style="fill:rgb(35,31,32);fill-rule:nonzero;"/>
    </g>
    <g transform="matrix(4.16667,0,0,4.16667,357.582,16.2354)">
        <path d="M0,41.251L-6.021,41.251L-6.021,44.404L10.087,44.404L10.087,41.251L3.852,41.251L8.965,26.335L28.157,26.335L33.409,41.251L27.455,41.251L27.455,44.404L43.215,44.404L43.215,41.251L37.331,41.251L22.834,0L28.786,0L28.786,-3.153L8.336,-3.153L8.336,0L14.29,0L0,41.251ZM10.087,23.182L18.35,-0.911L18.841,-0.911L27.107,23.182L10.087,23.182Z" style="fill:rgb(35,31,32);fill-rule:nonzero;"/>
    </g>
    <g transform="matrix(4.16667,0,0,4.16667,647.436,78.9767)">
        <path d="M0,11.065L12.605,11.065C11.485,22.341 1.05,26.614 -6.865,26.614C-18.98,26.614 -27.594,17.788 -27.594,5.392C-27.594,-6.795 -19.261,-15.549 -7.634,-15.549C1.05,-15.549 8.826,-10.084 10.717,-2.662L13.866,-2.662L13.866,-18.211L10.717,-18.211L10.717,-10.154L10.574,-10.154C6.372,-15.757 -0.421,-18.98 -7.773,-18.98C-21.431,-18.98 -31.518,-8.544 -31.518,5.601C-31.518,19.891 -21.292,30.045 -6.935,30.045C5.392,30.045 16.598,22.762 16.668,7.915L0,7.915L0,11.065Z" style="fill:rgb(35,31,32);fill-rule:nonzero;"/>
    </g>
    <g transform="matrix(4.16667,0,0,4.16667,726.325,16.2354)">
        <path d="M0,41.251L-6.024,41.251L-6.024,44.404L10.084,44.404L10.084,41.251L3.852,41.251L8.965,26.335L28.154,26.335L33.406,41.251L27.454,41.251L27.454,44.404L43.212,44.404L43.212,41.251L37.33,41.251L22.831,0L28.786,0L28.786,-3.153L8.335,-3.153L8.335,0L14.287,0L0,41.251ZM10.084,23.182L18.35,-0.911L18.84,-0.911L27.104,23.182L10.084,23.182Z" style="fill:rgb(35,31,32);fill-rule:nonzero;"/>
    </g>
    <g transform="matrix(4.16667,0,0,4.16667,931.536,16.2229)">
        <path d="M0,41.254L0,0.003L-8.399,0.003L-8.399,-3.15L4.156,-3.15L4.156,5.754L5.081,4.892C10.676,-0.302 16.921,-3.052 22.614,-3.052C28.565,-3.052 32.684,-0.056 34.227,5.052L34.479,5.893C40.929,-0.003 47.682,-3.052 53.366,-3.052C60.652,-3.052 65.26,0.951 65.26,9.345L65.26,41.254L72.949,41.254L72.949,44.404L52.908,44.404L52.908,41.254L61.101,41.254L61.101,9.849C61.101,3.727 58.271,0.597 52.659,0.597C47,0.597 40.495,3.834 34.868,9.46L34.708,41.254L42.6,41.254L42.6,44.404L22.356,44.404L22.356,41.254L30.549,41.254L30.549,9.849C30.549,4.17 27.959,0.597 22.312,0.597C16.445,0.597 11.459,3.132 4.342,9.437L4.156,41.254L12.048,41.254L12.048,44.404L-8.399,44.404L-8.399,41.254L0,41.254Z" style="fill:rgb(35,31,32);fill-rule:nonzero;"/>
    </g>
    <g transform="matrix(4.16667,0,0,4.16667,1364.5,32.0425)">
        <path d="M0,33.858C-5.902,38.861 -11.749,41.315 -17.347,41.315C-25.149,41.315 -31.364,35.276 -31.364,27.703C-31.364,19.496 -24.322,13.483 -14.212,13.483C-9.562,13.483 -5.096,14.666 0.102,17.367L0.908,17.784L0.908,5.751C0.908,-0.923 -3.391,-4.818 -12.387,-4.818C-19.751,-4.818 -24.676,-2.237 -27.457,3.283L-30.306,2.552C-26.672,-4.479 -21.262,-7.457 -11.984,-7.457C0.151,-7.457 5.067,-2.15 5.067,5.548L5.067,37.457L12.956,37.457L12.956,40.607L0.908,40.607L0.908,33.089L0,33.858ZM-13.298,16.326C-21.402,16.326 -27.104,21.041 -27.104,28.005C-27.104,34.012 -22.37,38.368 -16.033,38.368C-10.29,38.368 -3.263,34.949 0.777,30.183L0.908,20.809C-4.884,17.48 -8.518,16.326 -13.298,16.326" style="fill:rgb(35,31,32);fill-rule:nonzero;"/>
    </g>
    <g transform="matrix(4.16667,0,0,4.16667,1464.62,14.3354)">
        <path d="M0,41.707L0,0.456L-9.104,0.456L-9.104,-2.697L4.159,-2.697L4.159,9.844L4.371,9.844C7.689,1.294 16.146,-3.15 26.312,-2.634L26.312,1.349C8.15,1.204 4.159,8.927 4.159,21.027L4.159,41.707L13.971,41.707L13.971,44.857L-9.104,44.857L-9.104,41.707L0,41.707Z" style="fill:rgb(35,31,32);fill-rule:nonzero;"/>
    </g>
</svg>
